<?xml version="1.0" encoding="UTF-8"?>
<svg xmlns="http://www.w3.org/2000/svg" version="1.1" width="200" height="200" viewBox="0 0 200 200"><rect x="0" y="0" width="200" height="200" fill="#ffffff"/><g transform="scale(6.897)"><g transform="translate(0,0)"><path fill-rule="evenodd" d="M9 0L9 1L8 1L8 2L9 2L9 3L8 3L8 4L10 4L10 7L11 7L11 4L12 4L12 5L13 5L13 6L12 6L12 9L13 9L13 8L14 8L14 9L17 9L17 10L15 10L15 11L14 11L14 12L15 12L15 13L12 13L12 11L13 11L13 10L11 10L11 11L10 11L10 9L11 9L11 8L6 8L6 9L7 9L7 10L6 10L6 11L5 11L5 8L0 8L0 10L1 10L1 11L0 11L0 12L2 12L2 13L5 13L5 14L6 14L6 15L5 15L5 16L4 16L4 17L5 17L5 18L2 18L2 19L5 19L5 20L2 20L2 21L7 21L7 20L8 20L8 18L9 18L9 19L10 19L10 20L9 20L9 21L8 21L8 23L9 23L9 22L10 22L10 23L11 23L11 22L10 22L10 20L11 20L11 21L12 21L12 22L13 22L13 23L12 23L12 25L13 25L13 24L14 24L14 25L15 25L15 24L17 24L17 25L16 25L16 26L15 26L15 27L14 27L14 28L16 28L16 27L17 27L17 25L18 25L18 27L19 27L19 26L20 26L20 28L19 28L19 29L20 29L20 28L21 28L21 27L23 27L23 28L22 28L22 29L23 29L23 28L24 28L24 29L27 29L27 28L28 28L28 26L29 26L29 25L28 25L28 24L29 24L29 23L28 23L28 24L26 24L26 23L27 23L27 22L29 22L29 21L28 21L28 20L26 20L26 18L29 18L29 17L27 17L27 16L28 16L28 15L27 15L27 14L29 14L29 12L28 12L28 13L27 13L27 12L26 12L26 10L29 10L29 9L28 9L28 8L27 8L27 9L26 9L26 8L25 8L25 9L24 9L24 8L23 8L23 9L22 9L22 8L21 8L21 9L18 9L18 8L17 8L17 6L18 6L18 7L19 7L19 6L18 6L18 5L20 5L20 7L21 7L21 2L20 2L20 4L18 4L18 3L17 3L17 2L16 2L16 3L17 3L17 5L16 5L16 4L12 4L12 2L13 2L13 1L11 1L11 2L10 2L10 0ZM15 0L15 1L18 1L18 2L19 2L19 1L21 1L21 0ZM14 2L14 3L15 3L15 2ZM10 3L10 4L11 4L11 3ZM8 5L8 7L9 7L9 5ZM13 6L13 7L14 7L14 8L15 8L15 7L16 7L16 6L15 6L15 7L14 7L14 6ZM1 9L1 10L4 10L4 9ZM8 9L8 10L9 10L9 9ZM21 9L21 10L18 10L18 11L16 11L16 12L17 12L17 13L15 13L15 14L17 14L17 16L15 16L15 15L14 15L14 16L13 16L13 17L12 17L12 15L13 15L13 14L12 14L12 13L11 13L11 12L10 12L10 13L11 13L11 14L10 14L10 15L8 15L8 17L9 17L9 18L13 18L13 19L12 19L12 21L15 21L15 22L16 22L16 23L17 23L17 24L18 24L18 25L20 25L20 26L26 26L26 28L27 28L27 26L26 26L26 24L25 24L25 25L20 25L20 24L18 24L18 23L19 23L19 21L20 21L20 20L25 20L25 19L23 19L23 18L21 18L21 19L20 19L20 18L18 18L18 17L20 17L20 15L21 15L21 14L22 14L22 15L24 15L24 14L23 14L23 13L26 13L26 12L25 12L25 10L26 10L26 9L25 9L25 10L24 10L24 12L21 12L21 10L22 10L22 11L23 11L23 10L22 10L22 9ZM2 11L2 12L5 12L5 11ZM6 11L6 12L7 12L7 13L6 13L6 14L7 14L7 13L8 13L8 12L9 12L9 11L8 11L8 12L7 12L7 11ZM18 11L18 12L20 12L20 13L18 13L18 14L21 14L21 12L20 12L20 11ZM0 13L0 14L1 14L1 13ZM2 14L2 16L3 16L3 14ZM25 14L25 16L24 16L24 17L26 17L26 16L27 16L27 15L26 15L26 14ZM6 15L6 16L5 16L5 17L6 17L6 18L5 18L5 19L6 19L6 20L7 20L7 19L6 19L6 18L7 18L7 17L6 17L6 16L7 16L7 15ZM18 15L18 16L17 16L17 17L18 17L18 16L19 16L19 15ZM0 16L0 21L1 21L1 16ZM14 16L14 17L15 17L15 16ZM21 16L21 17L23 17L23 16ZM15 18L15 19L14 19L14 20L15 20L15 21L16 21L16 22L17 22L17 21L18 21L18 20L15 20L15 19L17 19L17 18ZM19 19L19 20L20 20L20 19ZM21 21L21 24L24 24L24 21ZM26 21L26 22L25 22L25 23L26 23L26 22L27 22L27 21ZM22 22L22 23L23 23L23 22ZM14 23L14 24L15 24L15 23ZM8 24L8 29L10 29L10 28L9 28L9 26L10 26L10 27L11 27L11 29L12 29L12 27L13 27L13 26L10 26L10 25L11 25L11 24ZM24 27L24 28L25 28L25 27ZM17 28L17 29L18 29L18 28ZM0 0L0 7L7 7L7 0ZM1 1L1 6L6 6L6 1ZM2 2L2 5L5 5L5 2ZM22 0L22 7L29 7L29 0ZM23 1L23 6L28 6L28 1ZM24 2L24 5L27 5L27 2ZM0 22L0 29L7 29L7 22ZM1 23L1 28L6 28L6 23ZM2 24L2 27L5 27L5 24Z" fill="#000000"/></g></g></svg>
